<mxfile host="app.diagrams.net" modified="2024-03-29T08:32:03.520Z" agent="Mozilla/5.0 (X11; Linux x86_64) AppleWebKit/537.36 (KHTML, like Gecko) Chrome/123.0.0.0 Safari/537.36" etag="XdNza2G51NAPdcwyQGTH" version="24.2.1" type="github">
  <diagram id="C5RBs43oDa-KdzZeNtuy" name="Page-1">
    <mxGraphModel dx="994" dy="600" grid="1" gridSize="10" guides="1" tooltips="1" connect="1" arrows="1" fold="1" page="1" pageScale="1" pageWidth="827" pageHeight="1169" math="0" shadow="0">
      <root>
        <mxCell id="WIyWlLk6GJQsqaUBKTNV-0" />
        <mxCell id="WIyWlLk6GJQsqaUBKTNV-1" parent="WIyWlLk6GJQsqaUBKTNV-0" />
        <mxCell id="13S4cDhmgtut_8zL9ob8-2" value="" style="edgeStyle=orthogonalEdgeStyle;rounded=0;orthogonalLoop=1;jettySize=auto;html=1;fillColor=#dae8fc;strokeColor=#6c8ebf;" edge="1" parent="WIyWlLk6GJQsqaUBKTNV-1" source="13S4cDhmgtut_8zL9ob8-0" target="13S4cDhmgtut_8zL9ob8-1">
          <mxGeometry relative="1" as="geometry" />
        </mxCell>
        <mxCell id="13S4cDhmgtut_8zL9ob8-0" value="" style="strokeWidth=2;html=1;shape=mxgraph.flowchart.start_2;whiteSpace=wrap;fillColor=#dae8fc;strokeColor=#6c8ebf;" vertex="1" parent="WIyWlLk6GJQsqaUBKTNV-1">
          <mxGeometry x="360" y="40" width="80" height="80" as="geometry" />
        </mxCell>
        <mxCell id="13S4cDhmgtut_8zL9ob8-4" value="" style="edgeStyle=orthogonalEdgeStyle;rounded=0;orthogonalLoop=1;jettySize=auto;html=1;fillColor=#dae8fc;strokeColor=#6c8ebf;" edge="1" parent="WIyWlLk6GJQsqaUBKTNV-1" source="13S4cDhmgtut_8zL9ob8-1" target="13S4cDhmgtut_8zL9ob8-3">
          <mxGeometry relative="1" as="geometry" />
        </mxCell>
        <mxCell id="13S4cDhmgtut_8zL9ob8-1" value="&amp;nbsp; const int PIR = 2&lt;div&gt;&amp;nbsp; const int LED = 4&lt;/div&gt;&lt;div&gt;&amp;nbsp; int count = 0&lt;/div&gt;" style="whiteSpace=wrap;html=1;strokeWidth=2;align=left;fillColor=#dae8fc;strokeColor=#6c8ebf;" vertex="1" parent="WIyWlLk6GJQsqaUBKTNV-1">
          <mxGeometry x="340" y="140" width="120" height="60" as="geometry" />
        </mxCell>
        <mxCell id="13S4cDhmgtut_8zL9ob8-8" value="" style="edgeStyle=orthogonalEdgeStyle;rounded=0;orthogonalLoop=1;jettySize=auto;html=1;" edge="1" parent="WIyWlLk6GJQsqaUBKTNV-1" source="13S4cDhmgtut_8zL9ob8-3" target="13S4cDhmgtut_8zL9ob8-7">
          <mxGeometry relative="1" as="geometry" />
        </mxCell>
        <mxCell id="13S4cDhmgtut_8zL9ob8-3" value="&lt;div&gt;&amp;nbsp; Serial.begin(9600)&lt;/div&gt;&lt;div&gt;&amp;nbsp; pinMode(PIR, INPUT)&lt;br&gt;&lt;/div&gt;&lt;div&gt;&amp;nbsp; pinMode(LED, OUTPUT)&lt;/div&gt;" style="whiteSpace=wrap;html=1;align=left;fillColor=#dae8fc;strokeColor=#6c8ebf;strokeWidth=2;" vertex="1" parent="WIyWlLk6GJQsqaUBKTNV-1">
          <mxGeometry x="320" y="250" width="160" height="60" as="geometry" />
        </mxCell>
        <mxCell id="13S4cDhmgtut_8zL9ob8-7" value="&amp;nbsp; int PIR = digitalRead" style="whiteSpace=wrap;html=1;align=left;fillColor=#dae8fc;strokeColor=#6c8ebf;strokeWidth=2;" vertex="1" parent="WIyWlLk6GJQsqaUBKTNV-1">
          <mxGeometry x="330" y="360" width="140" height="60" as="geometry" />
        </mxCell>
      </root>
    </mxGraphModel>
  </diagram>
</mxfile>
